<svg id="Layer_1" data-name="Layer 1" xmlns="http://www.w3.org/2000/svg" viewBox="0 0 324.76 365"><defs><style>.cls-1{fill:#9a4993;}.cls-2{fill:#6a1577;}.cls-3{fill:#813084;}.cls-4{fill:#fff;}</style></defs><title>csharp</title><path id="_Path_" data-name="&lt;Path&gt;" class="cls-1" d="M412.36,174.81a32.23,32.23,0,0,0-4-16.21,31,31,0,0,0-11.75-11.45q-64.85-37.39-129.73-74.74c-11.65-6.73-22.95-6.48-34.51.34-17.21,10.15-103.37,59.51-129,74.38-10.57,6.12-15.72,15.49-15.72,27.66q0,75.2,0,150.4a32.37,32.37,0,0,0,3.8,15.9,30.9,30.9,0,0,0,11.93,11.76c25.67,14.87,111.84,64.23,129,74.38,11.57,6.83,22.87,7.07,34.52.34q64.83-37.43,129.74-74.74a30.91,30.91,0,0,0,11.93-11.76,32.41,32.41,0,0,0,3.8-15.91s0-100.24,0-150.38" transform="translate(-87.62 -67.5)"/><path id="_Path_2" data-name="&lt;Path&gt;" class="cls-2" d="M250.5,249.51,91.42,341.11a30.9,30.9,0,0,0,11.93,11.76c25.67,14.87,111.84,64.23,129,74.38,11.57,6.83,22.87,7.07,34.52.34q64.83-37.43,129.74-74.74a30.91,30.91,0,0,0,11.93-11.76L250.5,249.51" transform="translate(-87.62 -67.5)"/><path id="_Path_3" data-name="&lt;Path&gt;" class="cls-2" d="M203.38,276.64a53.69,53.69,0,0,0,93.42-.31l-46.3-26.82-47.12,27.13" transform="translate(-87.62 -67.5)"/><path id="_Path_4" data-name="&lt;Path&gt;" class="cls-3" d="M412.36,174.81a32.23,32.23,0,0,0-4-16.21L250.5,249.51l158.09,91.58a32.41,32.41,0,0,0,3.8-15.91s0-100.24,0-150.38" transform="translate(-87.62 -67.5)"/><path id="_Path_5" data-name="&lt;Path&gt;" class="cls-4" d="M296.8,276.33a53.7,53.7,0,1,1-.35-53.27l46.94-27a107.85,107.85,0,1,0,.28,107.46L296.8,276.33" transform="translate(-87.62 -67.5)"/><g id="_Group_" data-name="&lt;Group&gt;"><rect id="_Rectangle_" data-name="&lt;Rectangle&gt;" class="cls-4" x="257.82" y="157" width="10.67" height="51.67"/><rect id="_Rectangle_2" data-name="&lt;Rectangle&gt;" class="cls-4" x="281.49" y="157" width="10.67" height="51.67"/><rect id="_Rectangle_3" data-name="&lt;Rectangle&gt;" class="cls-4" x="357.27" y="212.67" width="10.67" height="51.67" transform="translate(513.49 -191.61) rotate(90)"/><rect id="_Rectangle_4" data-name="&lt;Rectangle&gt;" class="cls-4" x="357.27" y="236.33" width="10.67" height="51.67" transform="translate(537.15 -167.94) rotate(90)"/></g></svg>