<svg id="Layer_1" data-name="Layer 1" xmlns="http://www.w3.org/2000/svg" viewBox="0 0 600 600"><defs><style>.cls-1{fill:#0d1524;}.cls-2{fill:#0d152c;}.cls-3{fill:#14113d;}</style></defs><title>logo-personal</title><polygon class="cls-1" points="169.77 541.29 43.7 541.29 43.7 343.86 169.77 440.2 169.77 541.29"/><polygon class="cls-2" points="296.84 523.83 43.7 301.55 43.7 209.75 319.93 452.3 296.84 523.83"/><polygon class="cls-2" points="296.84 523.83 555.11 301.64 555.11 209.75 275.31 452.3 296.84 523.83"/><polygon class="cls-3" points="296.84 372.78 43.7 150.51 43.7 58.71 319.93 301.25 296.84 372.78"/><polygon class="cls-3" points="296.84 372.78 556.3 150 555.11 58.71 275.31 301.25 296.84 372.78"/><polygon class="cls-1" points="429.04 541.29 555.11 541.29 555.11 343.86 429.04 440.2 429.04 541.29"/></svg>